<svg width="60" height="60" viewBox="0 0 64.1665 63.2911" fill="none" xmlns="http://www.w3.org/2000/svg" xmlns:xlink="http://www.w3.org/1999/xlink">
    <defs/>
    <path id="Vector" d="M32.0833 2.08337C33.2158 2.08337 34.3298 2.34692 35.3198 2.849L60.3699 15.5541C60.8892 15.8179 61.322 16.2035 61.6233 16.6713C61.9246 17.139 62.0833 17.6719 62.0833 18.2145L62.0833 43.2808C62.083 44.3663 61.7649 45.4321 61.1616 46.3677C60.5586 47.3032 59.6926 48.0745 58.6533 48.6014L35.3198 60.4421C34.3298 60.9442 33.2158 61.2078 32.0833 61.2078C30.9507 61.2078 29.8367 60.9442 28.8467 60.4421L5.51318 48.6014C4.47437 48.0747 3.60864 47.3038 3.00562 46.369C2.40259 45.434 2.08423 44.3689 2.08325 43.2838L2.08325 18.2145C2.08325 17.6719 2.24194 17.139 2.54321 16.6713C2.84448 16.2035 3.27734 15.8179 3.79663 15.5541L28.8467 2.849C29.8367 2.34692 30.9507 2.08337 32.0833 2.08337Z" stroke="#11650866" stroke-opacity="1.000000" stroke-width="4.166667" stroke-linejoin="round"/>
    <path id="Vector" d="M2.08325 16.4254L32.0833 31.6448L62.0833 16.4254M32.0833 31.6448L32.0833 62.0835" stroke="#11650866" stroke-opacity="1.000000" stroke-width="4.166667" stroke-linejoin="round"/>
    <path id="Vector" d="M17.0833 24.0347L47.0833 8.81531M12.0833 32.6427L22.0833 37.7321" stroke="#11650866" stroke-opacity="1.000000" stroke-width="4.166667" stroke-linejoin="round"/>
</svg>
