<svg width="60.000000" height="60.000000" viewBox="0 0 60 60" fill="none" xmlns="http://www.w3.org/2000/svg" xmlns:xlink="http://www.w3.org/1999/xlink">
    <defs/>
    <path id="Vector" d="M30 0C13.458 0 0 13.458 0 30L0 42.429C0 45.501 2.69092 48 6 48L9 48C9.79565 48 10.5586 47.684 11.1213 47.1213C11.6838 46.5587 12 45.7957 12 45L12 29.571C12 28.7754 11.6838 28.0123 11.1213 27.4497C10.5586 26.8871 9.79565 26.571 9 26.571L6.27588 26.571C7.94409 14.9611 17.9341 6 30 6C42.0659 6 52.0559 14.9611 53.7241 26.571L51 26.571C50.2043 26.571 49.4414 26.8871 48.8787 27.4497C48.3162 28.0123 48 28.7754 48 29.571L48 48C48 51.309 45.3091 54 42 54L36 54L36 51L24 51L24 60L42 60C48.6179 60 54 54.618 54 48C57.3091 48 60 45.501 60 42.429L60 30C60 13.458 46.542 0 30 0Z" fill="#11650866" fill-opacity="1.000000" fill-rule="nonzero"/>
</svg>
