<svg width="60.000000" height="60.000000" viewBox="0 0 60 60" fill="none" xmlns="http://www.w3.org/2000/svg" xmlns:xlink="http://www.w3.org/1999/xlink">
    <defs/>
    <path id="Vector" d="M25.556 0.154419L25.5417 0.134399L25.5046 0.162964C11.1704 1.68677 0 13.8284 0 28.5889C0 35.1986 2.24146 41.2852 6.005 46.1282L6.005 46.1338L6.01062 46.1338C8.38977 49.2024 11.3693 51.7527 14.7668 53.6285C18.1644 55.5044 21.9086 56.6664 25.7701 57.0433C25.9044 55.6825 26.2356 54.2588 26.7324 52.8208C20.5724 52.3628 14.8202 49.5645 10.6536 44.9989C10.8107 44.3127 10.882 43.5151 10.9391 42.8232L10.9648 42.4858C11.0162 41.8569 11.0648 41.2509 11.1448 40.639C11.3446 39.1324 11.6873 38.1261 12.2212 37.5571C12.9065 36.8224 13.6089 36.6995 15.0795 36.4393L15.3451 36.3907C16.0989 36.2593 17.1068 36.0563 18.0776 35.5273C19.1143 34.9613 19.9908 34.0979 20.6504 32.8257C21.3157 31.5449 21.2672 30.2241 21.0845 29.1807C20.9182 28.3451 20.6989 27.521 20.4277 26.7134C20.3834 26.5725 20.3397 26.4315 20.2964 26.2903C19.7109 24.3806 19.6396 23.4514 20.1222 22.7167C20.6476 21.9163 21.3672 21.7333 23.2402 21.2472L23.483 21.1873C25.3848 20.6954 27.9603 19.8721 29.4508 16.6902C31.067 13.2452 30.1561 9.35999 29.1653 6.72412C28.8528 5.896 28.4973 5.08496 28.1002 4.29407C28.2516 4.28833 28.4028 4.28833 28.5542 4.28833C33.1382 4.28137 37.6294 5.58032 41.5035 8.03345C40.9553 8.76245 40.2214 9.72302 39.402 10.7494C37.603 12.9994 35.5757 15.3151 34.1937 16.3528C33.5573 16.8184 33.0741 17.4634 32.8059 18.2053C32.5752 18.8799 32.5211 19.6024 32.6489 20.3038C32.8488 21.493 33.4799 22.608 34.0396 23.46C34.5049 24.1719 35.0532 24.8894 35.5129 25.4955L35.827 25.9043C36.0925 26.2617 36.3124 26.5562 36.4752 26.8107C36.558 26.9336 36.6179 27.0336 36.658 27.1079C36.6979 27.1794 36.7122 27.2166 36.715 27.2195C36.8292 27.5339 36.952 28.0485 37.0948 28.7632L37.1576 29.0663C38.4254 28.5002 39.7988 28.0657 41.2694 27.7941C41.14 27.0959 40.9607 26.4081 40.7327 25.7357C40.4185 24.8866 39.7361 23.9746 39.2449 23.3228C39.1216 23.1605 38.9978 22.9985 38.8738 22.8368C38.4359 22.275 38.0178 21.6981 37.6202 21.1072C37.1776 20.4325 36.9635 19.9664 36.8921 19.6835C38.748 18.2483 41.0267 15.5781 42.7457 13.431C43.5909 12.3733 44.3447 11.387 44.9072 10.6322C49.6168 14.923 52.4484 20.8989 52.7882 27.2651C54.4443 27.3967 55.8721 27.614 57.0999 27.8684C56.7173 12.4133 44.0848 0 28.5542 0C27.5435 0 26.5411 0.0515137 25.556 0.154419ZM6.95581 39.6842C5.25403 36.3621 4.33948 32.692 4.28308 28.9589C4.22668 25.2257 5.02991 21.5297 6.63037 18.1573C8.23096 14.7852 10.5858 11.8274 13.5123 9.51343C16.4388 7.19946 19.8584 5.59155 23.5059 4.81433C24.1554 5.90369 24.7086 7.04785 25.1592 8.23364C26.0558 10.6207 26.4155 13.068 25.576 14.8662C24.9336 16.2328 24.0198 16.6187 22.4122 17.0332L21.9496 17.1476C20.4305 17.5164 18.0348 18.0939 16.5443 20.3582C14.8282 22.9655 15.6735 25.8214 16.2017 27.5482L16.373 28.0972C16.6014 28.8262 16.7727 29.3837 16.8641 29.9154C16.9727 30.5358 16.8927 30.7616 16.8527 30.8445C16.5671 31.3962 16.2816 31.6221 16.0304 31.7594C15.7162 31.9309 15.3051 32.0453 14.5969 32.1682C14.4827 32.191 14.3571 32.2111 14.2257 32.2311C12.9037 32.4484 10.8021 32.7943 9.09167 34.6326C7.70398 36.1191 7.19849 38.0918 6.95581 39.6842ZM28.5742 57.7638C28.7455 55.005 29.9877 51.64 32.095 48.4695C32.7773 47.3088 33.6198 46.1338 34.6249 44.9874C38.0127 41.1285 42.4885 38.3875 47.4629 37.1255C47.8306 37.0333 48.1466 36.7988 48.3416 36.4734C48.5364 36.1479 48.5942 35.7583 48.5022 35.3901C48.4102 35.022 48.1759 34.7056 47.8508 34.5104C47.5258 34.3153 47.1366 34.2573 46.7689 34.3495C41.2312 35.7532 36.2484 38.8043 32.4775 43.1006C31.7152 43.9725 31.0214 44.8788 30.4045 45.7965C30.1234 44.8511 29.9811 43.8698 29.9819 42.8833C29.9819 40.2617 31.3154 37.4142 33.4285 35.1558C35.8381 32.5889 39.0623 30.9379 42.5515 30.4843C50.5468 29.4265 55.5094 30.3127 58.4363 31.1333C58.8315 31.2441 59.1866 31.4664 59.4594 31.7737C59.7321 32.0809 59.9108 32.4602 59.9742 32.8663C60.0377 33.2725 59.9833 33.6882 59.8174 34.0642C59.6516 34.4402 59.3812 34.7605 59.0387 34.9871C58.876 35.0957 58.6133 35.3586 58.2963 35.9591C57.9219 36.7163 57.6161 37.5056 57.3826 38.3176C57.1342 39.1295 56.8972 40.0072 56.6401 40.9622L56.4746 41.5682C56.1576 42.7404 55.8064 43.9983 55.3838 45.2448C54.55 47.7091 53.3735 50.3392 51.3948 52.3577C49.3417 54.4531 46.5548 55.7596 42.8313 55.7596C39.0365 55.7596 36.3866 54.2188 34.6934 52.4463C33.5398 54.5618 32.9402 56.5544 32.8488 58.0239C32.8048 58.5842 32.5427 59.1049 32.1191 59.4738C31.6956 59.8427 31.1442 60.0302 30.5839 59.9961C30.0236 59.9619 29.4989 59.7089 29.123 59.2914C28.7472 58.8739 28.5502 58.3253 28.5742 57.7638Z" fill="#11650866" fill-opacity="1.000000" fill-rule="nonzero"/>
</svg>
