<svg width="60.000000" height="60.000000" viewBox="0 0 60 60" fill="none" xmlns="http://www.w3.org/2000/svg" xmlns:xlink="http://www.w3.org/1999/xlink">
    <defs/>
    <path id="Vector" d="M50.8861 16.4846C50.8876 18.0046 50.6759 19.5176 50.2572 20.9803L55.1787 20.9803C57.843 20.9803 60 23.1084 60 25.7339L60 40.4622C60 44.1235 58.9542 47.7109 56.9824 50.8127C55.0107 53.9147 52.1929 56.4056 48.8519 58C45.5111 59.5944 41.7823 60.2277 38.0934 59.8271C34.4044 59.4268 30.9045 58.0088 27.995 55.7358L24.3949 59.2845C24.1864 59.5054 23.9348 59.6825 23.6553 59.8054C23.3759 59.9282 23.0741 59.9944 22.7682 59.9996C22.4623 60.005 22.1583 59.9495 21.8746 59.8364C21.5909 59.7234 21.3333 59.5551 21.1168 59.3416C20.9005 59.1282 20.73 58.8739 20.6154 58.594C20.5007 58.3141 20.4445 58.0143 20.4498 57.7124C20.4552 57.4106 20.5222 57.1129 20.6467 56.8372C20.7712 56.5615 20.9508 56.3134 21.1747 56.1075L24.7716 52.5558C23.563 51.0524 22.5864 49.3809 21.8734 47.5955C19.2247 48.1289 16.489 48.0743 13.8644 47.4359C11.2397 46.7975 8.79187 45.5912 6.69812 43.9042C4.60437 42.2173 2.91711 40.0919 1.75867 37.6823C0.60022 35.2726 -0.000610352 32.6389 0 29.9719L0 16.5265C0 14.0209 2.05969 11.9888 4.59949 11.9888L18.0972 11.9888C19.0902 8.5365 21.1976 5.49792 24.0996 3.33435C27.0016 1.17065 30.5398 0 34.1772 0L46.5114 0C48.9266 0 50.8861 1.93323 50.8861 4.31592L50.8861 16.4846ZM22.6997 12.5343C25.2213 13.1658 27.5771 14.3214 29.6095 15.9238C31.6417 17.5261 33.3037 19.5383 34.484 21.8256C36.3541 21.2637 38.2983 20.9788 40.2532 20.9803L45.4481 20.9803C46.0319 19.5515 46.3309 18.0251 46.3291 16.4846L46.3291 4.49585L34.1772 4.49585C31.6554 4.49585 29.1959 5.26953 27.1395 6.70972C25.0831 8.15002 23.5315 10.1854 22.6997 12.5343ZM31.2456 52.5288C33.5079 54.1726 36.1881 55.1652 38.988 55.396C41.788 55.627 44.5979 55.0872 47.1055 53.8367C49.613 52.5862 51.7198 50.6741 53.1918 48.3129C54.6637 45.9518 55.443 43.2341 55.443 40.4622L55.443 25.7339C55.443 25.7001 55.4363 25.6665 55.4231 25.6353C55.41 25.604 55.3907 25.5756 55.3665 25.5516C55.3423 25.5277 55.3135 25.5088 55.2817 25.4958C55.25 25.4828 55.2161 25.4762 55.1818 25.4762L40.2532 25.4762C37.4435 25.4762 34.6888 26.245 32.2955 27.6971C29.9023 29.1493 27.9642 31.2279 26.6967 33.7019C25.4292 36.1758 24.8821 38.948 25.1161 41.7103C25.3501 44.4727 26.3561 47.1168 28.0222 49.3489L40.9215 36.6257C41.1301 36.4049 41.3817 36.2278 41.6611 36.1049C41.9407 35.9821 42.2423 35.916 42.5483 35.9106C42.8542 35.9053 43.1581 35.9608 43.4418 36.0739C43.7256 36.1869 43.9833 36.3552 44.1996 36.5687C44.416 36.7821 44.5865 37.0364 44.7012 37.3163C44.8157 37.5962 44.8719 37.896 44.8666 38.1979C44.8612 38.4996 44.7942 38.7974 44.6697 39.0731C44.5452 39.3488 44.3656 39.5969 44.1417 39.8027L31.2456 52.5288ZM20.5063 40.4622C20.5063 38.6879 20.7494 36.9674 21.199 35.334L12.8203 27.0647C12.5964 26.8589 12.4169 26.6107 12.2924 26.335C12.1677 26.0592 12.1008 25.7616 12.0955 25.4597C12.09 25.158 12.1462 24.8582 12.2609 24.5782C12.3755 24.2983 12.546 24.0441 12.7625 23.8306C12.9788 23.6172 13.2365 23.4489 13.5203 23.3358C13.804 23.2228 14.1078 23.1672 14.4137 23.1726C14.7197 23.1779 15.0214 23.2439 15.3009 23.3668C15.5803 23.4896 15.8319 23.6667 16.0405 23.8877L23.0825 30.8322C24.8062 27.8497 27.2944 25.3671 30.2977 23.6329C29.1322 21.4734 27.3933 19.6674 25.2671 18.4082C23.141 17.1489 20.7076 16.484 18.2279 16.4846L4.58435 16.4846L4.56909 16.4966C4.56543 16.5011 4.56238 16.5062 4.56006 16.5116L4.55701 16.5265L4.55701 29.9719C4.55664 31.9504 4.99768 33.9048 5.84851 35.6964C6.69946 37.488 7.93945 39.073 9.48059 40.3389C11.0219 41.6049 12.8264 42.5208 14.7665 43.0217C16.7067 43.5226 18.7346 43.5963 20.7068 43.2375C20.5736 42.3182 20.5066 41.3907 20.5063 40.4622Z" fill="#11650866" fill-opacity="1.000000" fill-rule="nonzero"/>
</svg>
