<svg width="22" height="24" viewBox="0 0 22 24" fill="none" xmlns="http://www.w3.org/2000/svg">
<path fill-rule="evenodd" clip-rule="evenodd" d="M15.5917 6C15.5728 5.9193 15.5531 5.83842 15.5325 5.75746C15.2648 4.70138 14.8433 3.55383 14.1559 2.65C13.4472 1.71802 12.4123 1 11 1C9.5877 1 8.5528 1.71802 7.84406 2.65C7.15673 3.55383 6.73518 4.70138 6.46747 5.75747C6.44695 5.83842 6.42722 5.9193 6.40825 6H4.78557C3.18414 6 1.85697 7.22455 1.75044 8.80044L1.00687 19.8004C0.889827 21.532 2.28239 23 4.042 23H17.958C19.7176 23 21.1102 21.532 20.9931 19.8004L20.2496 8.80044C20.143 7.22455 18.8159 6 17.2144 6H15.5917ZM6.94418 11C7.52516 11 7.95616 10.5684 7.95814 9.99817C7.9583 9.97438 7.95858 9.9506 7.95899 9.92682C7.95988 9.87413 7.9617 9.79455 7.96541 9.69194C7.97285 9.48652 7.98784 9.18999 8.018 8.83304C8.03941 8.57976 8.06824 8.29862 8.10693 8H13.8931C13.9318 8.29862 13.9606 8.57976 13.982 8.83305C14.0122 9.18999 14.0272 9.48652 14.0346 9.69194C14.0383 9.79455 14.0401 9.87413 14.041 9.92682C14.0414 9.95134 14.0418 9.97587 14.0419 10.0004C14.0419 10.0004 14.0419 11 15.0558 11C16.0698 11 16.0698 9.99866 16.0698 9.99866C16.0697 9.9636 16.0692 9.92854 16.0686 9.89349C16.0676 9.829 16.0654 9.7367 16.0612 9.62056C16.0528 9.38848 16.0361 9.06001 16.0029 8.66695C15.9856 8.46202 15.9637 8.23812 15.9359 8H17.2144C17.7482 8 18.1906 8.40818 18.2261 8.93348L18.9697 19.9335C19.0087 20.5107 18.5445 21 17.958 21H4.042C3.45547 21 2.99128 20.5107 3.03029 19.9335L3.77386 8.93348C3.80937 8.40818 4.25176 8 4.78557 8H6.06414C6.03633 8.23812 6.01441 8.46202 5.9971 8.66696C5.96389 9.06001 5.9472 9.38848 5.93879 9.62056C5.93459 9.7367 5.93245 9.829 5.93136 9.89349C5.93077 9.92785 5.93033 9.96221 5.93023 9.99658C5.92945 10.5672 6.36453 11 6.94418 11ZM8.4991 6H13.5009C13.2665 5.15322 12.9478 4.39466 12.5336 3.85C12.1017 3.28198 11.6156 3 11 3C10.3844 3 9.89835 3.28198 9.46639 3.85C9.0522 4.39466 8.73353 5.15322 8.4991 6Z" fill="#151618" stroke="black"/>
</svg>
